<svg width="37" height="37" viewBox="0 0 37 37" fill="none" xmlns="http://www.w3.org/2000/svg">
<circle cx="18.4817" cy="18.5604" r="18.3246" fill="#CA943A" fill-opacity="0.1"/>
<path d="M15.2329 10.7301C13.9062 11.0897 12.5626 11.5148 11.7674 11.7743C11.5486 11.8457 11.395 12.0352 11.3662 12.2517C10.6895 17.3294 12.2529 21.0356 14.1184 23.476C15.055 24.7012 16.0683 25.6075 16.9131 26.2032C17.3359 26.5013 17.7096 26.7169 18.0033 26.8551C18.1503 26.9243 18.2705 26.971 18.3619 26.9993C18.4371 27.0226 18.4758 27.0281 18.485 27.0294C18.4942 27.0281 18.5328 27.0226 18.6081 26.9993C18.6994 26.971 18.8196 26.9243 18.9666 26.8551C19.2603 26.7169 19.634 26.5013 20.0568 26.2032C20.9016 25.6075 21.915 24.7012 22.8515 23.476C24.717 21.0356 26.2804 17.3294 25.6038 12.2517C25.5749 12.0352 25.4213 11.8457 25.2025 11.7743C24.4073 11.5148 23.0637 11.0897 21.737 10.7301C20.3806 10.3624 19.1335 10.0897 18.485 10.0897C17.8364 10.0897 16.5893 10.3624 15.2329 10.7301ZM14.9076 9.47032C16.2339 9.11078 17.6426 8.78662 18.485 8.78662C19.3273 8.78662 20.736 9.11077 22.0623 9.47032C23.4185 9.83792 24.7848 10.2704 25.5885 10.5327C26.2592 10.7516 26.7665 11.3442 26.8639 12.0754C27.5928 17.5451 25.9027 21.5978 23.8528 24.2794C22.8318 25.6152 21.722 26.6108 20.7779 27.2766C20.3061 27.6093 19.8689 27.8644 19.4976 28.0392C19.1546 28.2007 18.7876 28.3329 18.485 28.3329C18.1823 28.3329 17.8153 28.2007 17.4723 28.0392C17.101 27.8644 16.6638 27.6093 16.192 27.2766C15.2479 26.6108 14.1381 25.6152 13.1171 24.2794C11.0672 21.5978 9.37715 17.5451 10.106 12.0754C10.2034 11.3442 10.7107 10.7516 11.3815 10.5327C12.1852 10.2704 13.5514 9.83793 14.9076 9.47032Z" fill="#CA943A"/>
<path d="M21.9709 15.0739C22.2094 15.3125 22.2094 15.6992 21.9709 15.9378L18.306 19.6027C18.1914 19.7172 18.0361 19.7816 17.8741 19.7816C17.7121 19.7816 17.5567 19.7172 17.4422 19.6027L15.6097 17.7702C15.3712 17.5317 15.3712 17.1449 15.6097 16.9064C15.8482 16.6678 16.235 16.6678 16.4735 16.9064L17.8741 18.3069L21.1071 15.0739C21.3456 14.8354 21.7324 14.8354 21.9709 15.0739Z" fill="#CA943A"/>
</svg>
