<svg width="37" height="38" viewBox="0 0 37 38" fill="none" xmlns="http://www.w3.org/2000/svg">
<circle cx="18.4817" cy="19.1049" r="18.3246" fill="#CA943A" fill-opacity="0.1"/>
<path fill-rule="evenodd" clip-rule="evenodd" d="M28.2493 20.3515C27.6734 19.9084 26.9239 19.7592 26.2222 19.9478L22.2289 20.866C22.4172 20.0709 22.2313 19.2333 21.7244 18.5925C21.2175 17.9517 20.4453 17.5779 19.6282 17.578H14.8504C14.04 17.576 13.2624 17.898 12.6906 18.4723L10.5317 20.6321H7.79353C6.95016 20.6321 6.26648 21.3158 6.26648 22.1592V25.9768C6.26648 26.8202 6.95016 27.5039 7.79353 27.5039H17.7194C17.7818 27.5039 17.844 27.4962 17.9045 27.4809L24.0127 25.9539C24.0517 25.9446 24.0897 25.9319 24.1263 25.9157L27.8361 24.3371L27.8781 24.318C28.6029 23.9559 29.0897 23.2455 29.166 22.4388C29.2423 21.6322 28.8972 20.8432 28.2531 20.3515H28.2493ZM7.79353 22.1592H10.0841V25.9768H7.79353V22.1592ZM27.209 22.9427L23.5823 24.487L17.6239 25.9768H11.6112V21.7116L13.771 19.5527C14.0564 19.265 14.4452 19.1038 14.8504 19.1051H19.6282C20.2607 19.1051 20.7735 19.6178 20.7735 20.2504C20.7735 20.8829 20.2607 21.3957 19.6282 21.3957H16.9558C16.5342 21.3957 16.1923 21.7375 16.1923 22.1592C16.1923 22.5809 16.5342 22.9227 16.9558 22.9227H20.0099C20.0674 22.9225 20.1247 22.9161 20.1808 22.9036L26.5753 21.4329L26.6049 21.4252C27.0091 21.313 27.433 21.5237 27.5875 21.9138C27.7421 22.3038 27.5776 22.7476 27.2062 22.9427H27.209ZM21.9187 16.051C22.1074 16.0512 22.2957 16.0359 22.4818 16.0052C23.0646 17.736 24.8996 18.7086 26.6591 18.219C28.4186 17.7295 29.4876 15.949 29.0927 14.1659C28.6977 12.3828 26.9768 11.2202 25.1752 11.5195C24.6159 9.85703 22.8941 8.8828 21.181 9.25937C19.468 9.63593 18.3135 11.2424 18.5029 12.9861C18.6923 14.7299 20.1648 16.051 21.9187 16.051ZM27.6452 14.9057C27.6452 15.9599 26.7906 16.8145 25.7364 16.8145C24.6822 16.8145 23.8276 15.9599 23.8276 14.9057C23.8276 13.8515 24.6822 12.9969 25.7364 12.9969C26.7906 12.9969 27.6452 13.8515 27.6452 14.9057ZM21.9187 10.7063C22.7745 10.7067 23.5254 11.2766 23.756 12.1007C22.9653 12.657 22.4456 13.5208 22.3244 14.48C22.1911 14.5088 22.0551 14.5235 21.9187 14.5239C20.8645 14.5239 20.0099 13.6693 20.0099 12.6151C20.0099 11.5609 20.8645 10.7063 21.9187 10.7063Z" fill="#CA943A"/>
</svg>
