<svg width="158" height="86" viewBox="0 0 158 86" fill="none" xmlns="http://www.w3.org/2000/svg">
<g clip-path="url(#clip0_12_1520)">
<path d="M209.464 30.6102C202.751 5.38449 195.28 -19.634 187.638 -44.6007C184.47 -54.9776 181.338 -65.3545 177.292 -75.4378C176.156 -78.2522 174.332 -79.8752 171.457 -80.8767C156.137 -86.2291 141.523 -81.3601 132.056 -67.4782C131.075 -66.0451 128.785 -64.2149 131.178 -62.5574C133.605 -60.8826 134.363 -63.7315 135.378 -65.1646C141.781 -74.212 150.13 -79.3054 161.525 -78.7184C170.459 -78.2522 172.662 -76.8537 175.537 -68.5487C180.89 -53.1129 185.589 -37.4698 190.168 -21.7923C193.473 -10.483 196.761 0.843513 200.203 12.6707C177.241 -11.3118 140.783 -3.55933 127.529 23.8764C122.33 15.865 115.17 11.2204 105.634 11.1686C96.0975 11.1168 88.9712 15.8304 83.5663 23.7728C76.3883 10.0636 65.8366 1.39603 50.8094 -1.14208C35.6446 -3.71472 22.8207 1.27516 11.8042 11.8074C11.3739 10.3916 12.0108 9.40747 12.3034 8.4233C16.7961 -7.04707 21.2371 -22.552 25.8847 -37.9705C29.4306 -49.6942 32.9593 -61.4178 37.3487 -72.8652C37.9511 -74.4537 38.502 -76.0249 40.4299 -76.6983C47.9004 -79.2882 55.3193 -79.6853 62.7038 -76.4911C68.7457 -73.8839 73.0662 -69.3602 76.6121 -63.9387C77.3867 -62.7646 78.2474 -61.366 79.9343 -62.3847C81.7933 -63.507 80.8466 -64.9056 80.0203 -66.2351C71.4653 -80.3759 56.5242 -86.0219 40.8946 -81.2738C37.211 -80.1515 34.7323 -78.2004 33.5273 -74.4537C31.8749 -69.3429 29.9126 -64.3358 28.2429 -59.2423C18.7067 -30.0282 10.8058 -0.313301 1.88938 29.0735C-0.0901391 35.6346 -0.468831 42.2647 0.512325 49.1194C3.97219 73.0846 28.8109 90.3852 52.3414 84.9982C77.1285 79.3177 91.6221 56.5438 86.131 31.7325C85.7523 30.0059 85.89 28.6246 86.6646 27.157C90.7098 19.5772 97.0098 15.3297 105.565 15.347C114.257 15.347 120.609 19.6808 124.603 27.4505C125.308 28.8318 125.515 30.1267 125.102 31.7497C123.621 37.6547 123.363 43.6806 124.517 49.6719C129.336 74.6558 152.832 90.1953 177.31 84.6702C201.219 79.2659 215.936 54.938 209.464 30.5929V30.6102ZM43.7004 81.545C21.874 81.545 4.36809 63.8818 4.40252 41.9194C4.43695 20.0952 21.8568 2.69098 43.6659 2.67371C65.3891 2.67371 83.0327 20.216 83.0327 41.8849C83.0327 63.7782 65.4235 81.545 43.7004 81.545ZM167.412 81.614C145.568 81.5968 127.994 63.8818 128.028 41.9367C128.063 20.1815 145.637 2.55285 167.326 2.51832C189.238 2.48379 206.848 20.0779 206.865 42.0058C206.865 63.9509 189.256 81.6141 167.395 81.5968L167.412 81.614Z" fill="#00664E" fill-opacity="0.8"/>
<path d="M45.7361 12.3257C60.2985 12.8437 73.5183 26.3803 73.3633 40.7111C73.3633 42.2305 73.5699 43.9571 71.3494 44.0261C69.2666 44.0779 68.974 42.4377 68.9568 40.901C68.9051 28.7457 58.2845 17.281 45.4951 16.694C44.9615 16.6767 44.4279 16.5731 43.8943 16.5041C42.5861 16.3314 41.6221 15.7616 41.691 14.2595C41.7598 12.7401 42.7754 12.3084 44.118 12.3257C44.6516 12.3257 45.1853 12.3257 45.7189 12.3257H45.7361Z" fill="#00664E" fill-opacity="0.8"/>
</g>
<defs>
<clipPath id="clip0_12_1520">
<rect width="211" height="169" fill="white" transform="translate(0 -83)"/>
</clipPath>
</defs>
</svg>
