<svg width="110" height="94" viewBox="0 0 110 94" fill="none" xmlns="http://www.w3.org/2000/svg">
<path d="M84.8689 -30.4046L84.868 -30.4049C78.0902 -32.467 71.1678 -33.3485 64.0916 -32.9458C47.9345 -32.0533 34.1125 -25.8625 22.8878 -14.2689L22.8873 -14.2684C13.0873 -4.12679 7.20725 8.07414 6.28076 22.1071L6.28075 22.1073C5.44678 34.7806 7.59673 46.0481 12.7352 55.7913C17.8736 65.5345 25.9785 73.712 36.9897 80.2393L36.99 80.2394C49.1249 87.4258 62.5234 89.8048 76.4273 87.402C99.1754 83.4818 115.174 70.7022 123.897 49.4513C129.175 36.5948 129.45 23.3229 125.448 10.0515L125.448 10.0503C125.055 8.75496 125.311 7.71766 125.832 7.04348C126.358 6.36261 127.193 5.99541 128.095 6.09819L128.097 6.09832C128.7 6.16608 129.205 6.37479 129.591 6.71189C129.974 7.04657 130.281 7.54364 130.435 8.26133L130.436 8.26268C130.68 9.38842 130.94 10.5041 131.199 11.6139C131.964 14.8886 132.717 18.1123 133.003 21.3932L133.003 21.3938C134.653 40.1198 129.338 56.766 116.851 70.9318L116.851 70.932C105.714 83.5742 91.5908 91.0485 74.7559 92.845C52.1872 95.2587 33.0365 88.0292 17.7015 71.454C7.67845 60.6204 2.23694 47.613 0.934192 32.8971L0.934169 32.8969C0.901518 32.5296 0.816374 32.1473 0.743921 31.822C0.728073 31.7508 0.712833 31.6824 0.698882 31.6174V31.6092V31.593V31.5767V31.5605V31.5442V31.528V31.5117V31.4955V31.4792V31.463V31.4467V31.4305V31.4142V31.398V31.3817V31.3655V31.3493V31.333V31.3167V31.3005V31.2843V31.268V31.2518V31.2355V31.2193V31.203V31.1868V31.1705V31.1543V31.138V31.1218V31.1055V31.0893V31.073V31.0568V31.0405V31.0243V31.008V30.9918V30.9756V30.9593V30.9431V30.9268V30.9106V30.8943V30.8781V30.8618V30.8456V30.8293V30.8131V30.7968V30.7806V30.7643V30.7481V30.7318V30.7156V30.6993V30.6831V30.6669V30.6506V30.6344V30.6181V30.6019V30.5856V30.5694V30.5531V30.5369V30.5206V30.5044V30.4881V30.4719V30.4556V30.4394V30.4231V30.4069V30.3906V30.3744V30.3582V30.3419V30.3257V30.3094V30.2932V30.2769V30.2607V30.2444V30.2282V30.2119V30.1957V30.1794V30.1632V30.1469V30.1307V30.1144V30.0982V30.0819V30.0657V30.0494V30.0332V30.017V30.0007V29.9845V29.9682V29.952V29.9357V29.9195V29.9032V29.887V29.8707V29.8545V29.8382V29.822V29.8057V29.7895V29.7732V29.757V29.7407V29.7245V29.7083V29.692V29.6758V29.6595V29.6433V29.627V29.6108V29.5945V29.5783V29.562V29.5458V29.5295V29.5133V29.497V29.4808V29.4645V29.4483V29.432V29.4158V29.3996V29.3833V29.3671V29.3508V29.3346V29.3183V29.3021V29.2858V29.2696V29.2533V29.2371V29.2208V29.2046V29.1883V29.1721V29.1558V29.1396V29.1233V29.1071V29.0909V29.0746V29.0583V29.0421V29.0259V29.0096V28.9934V28.9771V28.9609V28.9446V28.9284V28.9121V28.8959V28.8796V28.8634V28.8471V28.8309V28.8146V28.7984V28.7821V28.7659V28.7496V28.7334V28.7172V28.7009V28.6847V28.6684V28.6522V28.6359V28.6197V28.6034V28.5872V28.5709V28.5547V28.5384V28.5222V28.5059V28.4897V28.4734V28.4572V28.4409V28.4247V28.4085V28.3922V28.376V28.3597V28.3435V28.3272V28.311V28.2947V28.2785V28.2622V28.246V28.2297V28.2135V28.1972V28.181V28.1647V28.1485V28.1322V28.116V28.0998V28.0835V28.0673V28.051V28.0348V28.0185V28.0023V27.986V27.9698V27.9535V27.9373V27.921V27.9048V27.8885V27.8723V27.856V27.8398V27.8235V27.8073V27.791V27.7748V27.7586V27.7423V27.7261V27.7098V27.6936V27.6773V27.6611V27.6448V27.6286V27.6123V27.5961V27.5798V27.5636V27.5473V27.5311V27.5148V27.4986V27.4823V27.4661V27.4499V27.4336V27.4174V27.4011V27.3849V27.3686V27.3524V27.3361V27.3199V27.3036V27.2874V27.2711V27.2549V27.2386V27.2224V27.2061V27.1899V27.1736V27.1574V27.1412V27.1249V27.1087V27.0924V27.0762V27.0599V27.0437V27.0274V27.0112V26.9949V26.9787V26.9624V26.9462V26.9299V26.9137V26.8974V26.8812V26.8649V26.8487V26.8325V26.8162V26.7999V26.7837V26.7675V26.7512V26.735V26.7187V26.7025V26.6862V26.67V26.6537V26.6375V26.6212V26.605V26.5887V26.5725V26.5562V26.54V26.5237V26.5075V26.4912V26.475V26.4588V26.4425V26.4263V26.41V26.3938V26.3775V26.3613V26.345V26.3288V26.3125V26.2963V26.28V26.2638V26.2475V26.2313V26.215V26.1988V26.1825V26.1663V26.1501V26.1338V26.1176V26.1013V26.0851V26.0688V26.0526V26.0363V26.0201V26.0038V25.9876V25.9713V25.9551V25.9388V25.9226V25.9063V25.8901V25.8738V25.8576V25.8413V25.8251V25.8089V25.7926V25.7764V25.7601V25.7439V25.7276V25.7114V25.6951V25.6789V25.6626V25.6464V25.6301V25.6139V25.5976V25.5814V25.5651V25.5489V25.5326V25.5164V25.5002V25.4839V25.4677V25.4514V25.4352V25.4189V25.4027V25.3864V25.3702V25.3539V25.3377V25.3214V25.3052V25.2889V25.2727V25.2564V25.2402V25.2239V25.2077V25.1915V25.1752V25.159V25.1427V25.1265V25.1102V25.094V25.0777V25.0615V25.0452V25.029V25.0127V24.9965V24.9802V24.964V24.9477V24.9315V24.9152V24.899V24.8827V24.8665V24.8503V24.834V24.8178V24.8015V24.7853V24.769V24.7528V24.7365V24.7203V24.704V24.6878V24.6715V24.6553V24.639V24.6228V24.6065V24.5903V24.574V24.5578V24.5415V24.5253V24.5091V24.4928V24.4766V24.4603V24.4441V24.4278V24.4116V24.3953V24.3791V24.3628V24.3466V24.3303V24.3141V24.2978V24.2816V24.2653V24.2491V24.2328V24.2166V24.2004V24.1841V24.1679V24.1516V24.1354V24.1191V24.1029V24.0866V24.0704V24.0541V24.0379V24.0216V24.0054V23.9891V23.9729V23.9566V23.9404V23.9241V23.9079V23.8917V23.8754V23.8592V23.8429V23.8267V23.8104V23.7942V23.7779V23.7617V23.7454V23.7292V23.7129V23.6967V23.6804V23.6642V23.6479V23.6317V23.6154V23.5992V23.5829V23.5667V23.5505V23.5342V23.518V23.5017V23.4855V23.4692V23.453V23.4429C0.714781 23.3671 0.732892 23.2849 0.751923 23.1985C0.810881 22.9308 0.878675 22.623 0.916948 22.3422C1.0939 21.2346 1.24639 20.1366 1.39769 19.0473C1.71471 16.7647 2.02649 14.5198 2.54705 12.3031L2.54713 12.3028C8.50848 -13.1361 29.795 -33.0097 55.6011 -37.2909L55.6025 -37.2911C57.2674 -37.5708 58.9351 -37.7852 60.6179 -38.0016C61.3754 -38.099 62.136 -38.1968 62.9007 -38.3011H62.9023H62.9187H62.9351H62.9514H62.9678H62.9842H63.0005H63.0169H63.0333H63.0496H63.066H63.0824H63.0988H63.1151H63.1315H63.1479H63.1642H63.1806H63.197H63.2133H63.2297H63.2461H63.2625H63.2788H63.2952H63.3116H63.3279H63.3443H63.3607H63.377H63.3934H63.4098H63.4261H63.4425H63.4589H63.4753H63.4916H63.508H63.5244H63.5407H63.5571H63.5735H63.5898H63.6062H63.6226H63.639H63.6553H63.6717H63.6881H63.7044H63.7208H63.7372H63.7535H63.7699H63.7863H63.8027H63.819H63.8354H63.8518H63.8681H63.8845H63.9009H63.9172H63.9336H63.95H63.9663H63.9827H63.9991H64.0155H64.0318H64.0482H64.0646H64.0809H64.0973H64.1137H64.13H64.1464H64.1628H64.1792H64.1955H64.2119H64.2283H64.2446H64.261H64.2774H64.2937H64.3101H64.3265H64.3428H64.3592H64.3756H64.392H64.4083H64.4247H64.4411H64.4574H64.4738H64.4902H64.5065H64.5229H64.5393H64.5557H64.572H64.5884H64.6048H64.6211H64.6375H64.6539H64.6702H64.6866H64.703H64.7194H64.7357H64.7521H64.7685H64.7848H64.8012H64.8176H64.8339H64.8503H64.8667H64.883H64.8994H64.9158H64.9322H64.9485H64.9649H64.9813H64.9976H65.014H65.0304H65.0467H65.0631H65.0795H65.0959H65.1122H65.1286H65.145H65.1613H65.1777H65.1941H65.2104H65.2268H65.2432H65.2596H65.2759H65.2923H65.3087H65.325H65.3414H65.3578H65.3741H65.3905H65.4069H65.4232H65.4396H65.456H65.4724H65.4887H65.5051H65.5215H65.5378H65.5542H65.5706H65.5869H65.6033H65.6197H65.6361H65.6524H65.6688H65.6852H65.7015H65.7179H65.7343H65.7506H65.767H65.7834H65.7998H65.8161H65.8325H65.8489H65.8652H65.8816H65.898H65.9143H65.9307H65.9471H65.9634H65.9798H65.9962H66.0126H66.0289H66.0453H66.0617H66.078H66.0944H66.1108H66.1271H66.1435H66.1599H66.1763H66.1926H66.209H66.2254H66.2417H66.2581H66.2745H66.2908H66.3072H66.3236H66.34H66.3563H66.3727H66.3891H66.4054H66.4218H66.4382H66.4545H66.4709H66.4873H66.5036H66.52H66.5364H66.5528H66.5691H66.5855H66.6019H66.6182H66.6346H66.651H66.6673H66.6837H66.7001H66.7165H66.7328H66.7492H66.7656H66.7819H66.7983H66.8147H66.831H66.8474H66.8638H66.8801H66.8965H66.9129H66.9293H66.9456H66.962H66.9784H66.9947H67.0111H67.0275H67.0438H67.0602H67.0766H67.093H67.1093H67.1257H67.1421H67.1584H67.1748H67.1912H67.2075H67.2239H67.2403H67.2567H67.273H67.2894H67.3058H67.3221H67.3385H67.3549H67.3712H67.3876H67.404H67.4203H67.4367H67.4531H67.4695H67.4858H67.5022H67.5186H67.5349H67.5513H67.5677H67.584H67.6004H67.6168H67.6332H67.6495H67.6659H67.6823H67.6986H67.715H67.7314H67.7477H67.7641H67.7805H67.7969H67.8132H67.8296H67.846H67.8623H67.8787H67.8951H67.9114H67.9278H67.9442H67.9605H67.9769H67.9933H68.0097H68.026H68.0424H68.0588H68.0751H68.0915H68.1079H68.1242H68.1406H68.157H68.1734H68.1897H68.2061H68.2225H68.2388H68.2552H68.2716H68.2879H68.3043H68.3207H68.3371H68.3534H68.3698H68.3862H68.4025H68.4189H68.4353H68.4516H68.468H68.4844H68.5007H68.5171H68.5335H68.5499H68.5662H68.5826H68.599H68.6153H68.6317H68.6481H68.6644H68.6808H68.6972H68.7136H68.7299H68.7463H68.7627H68.779H68.7954H68.8118H68.8281H68.8445H68.8609H68.8773H68.8936H68.91H68.9264H68.9427H68.9591H68.9755H68.9918H69.0082H69.0246H69.0409H69.0573H69.0737H69.0901H69.1064H69.1228H69.1392H69.1555H69.1719H69.1883H69.2046H69.221H69.2374H69.2538H69.2701H69.2865H69.3029H69.3192H69.3356H69.352H69.3683H69.3847H69.4011H69.4174H69.4338H69.4502H69.4666H69.4829H69.4993H69.5157H69.532H69.5484H69.5648H69.5811H69.5975H69.6139H69.6303H69.6466H69.663H69.6794H69.6957H69.7121H69.7285H69.7448H69.7612H69.7776H69.794H69.8103H69.8267H69.8431H69.8594H69.8758H69.8922H69.9085H69.9249H69.9413H69.9576H69.974H69.9904H70.0068H70.0231H70.0395H70.0559H70.0722H70.0886H70.105H70.1213H70.1377H70.1541H70.1705H70.1868H70.2032H70.2196H70.2359H70.2523H70.2687H70.285H70.3014H70.3178H70.3342H70.3505H70.3669H70.3833H70.3996H70.416H70.4324H70.4487H70.4651H70.4815H70.4978H70.5142H70.5306H70.547H70.5633H70.5797H70.5961H70.6124H70.6288H70.6452H70.6615H70.6779H70.6943H70.7107H70.727H70.7434H70.7598H70.7761H70.7925H70.8089H70.8252H70.8416H70.858H70.8744H70.8907H70.9071H70.9235H70.9398H70.9562H70.9726H70.9889H71.0053H71.0217H71.038H71.0544H71.0708H71.0872H71.1035H71.1199H71.1363H71.1526H71.169H71.1854H71.187C71.9009 -38.2038 72.6094 -38.1144 73.3136 -38.0255C75.0481 -37.8066 76.757 -37.5909 78.4585 -37.2688L78.5884 -37.9555L78.4585 -37.2688C81.1275 -36.7636 83.777 -36.1096 86.4122 -35.403C87.375 -35.1439 88.0255 -34.6376 88.38 -34.0482C88.7321 -33.4631 88.8278 -32.7396 88.583 -31.96C88.3538 -31.2398 87.8829 -30.7297 87.2644 -30.4538C86.6382 -30.1745 85.8129 -30.1159 84.8689 -30.4046Z" fill="#CA943A" stroke="#F4DCC3" stroke-width="1.39776"/>
<path d="M67.3837 73.2951L67.3484 73.2948C44.8662 73.0865 25.6281 56.9359 21.8776 34.9435C17.5473 9.54773 35.1509 -14.3615 60.9228 -17.9142L60.9234 -17.9143C63.2478 -18.2369 65.6205 -18.2375 68.0411 -18.2381C68.638 -18.2382 69.2378 -18.2384 69.8405 -18.2434M67.3837 73.2951L26.7581 31.6947C24.9094 15.3427 33.4252 -0.726221 48.0631 -8.37045C54.9213 -11.9571 62.2194 -13.6451 70.0194 -12.9737C71.0649 -12.8861 71.9015 -13.2804 72.3979 -13.8785C72.8916 -14.4734 73.0853 -15.3106 72.7707 -16.2128L72.7691 -16.2175C72.5233 -16.9387 72.1386 -17.4341 71.6682 -17.7529C71.1947 -18.0738 70.5854 -18.2487 69.8405 -18.2434M67.3837 73.2951C68.467 73.1495 69.5367 73.0385 70.5941 72.9287C72.8617 72.6934 75.0731 72.4639 77.242 71.9113C86.9483 69.432 94.741 65.1334 100.617 59.0543C106.492 52.9756 110.485 45.0805 112.536 35.3523C113.162 32.3777 113.15 29.2524 113.137 26.0732C113.135 25.4682 113.133 24.8613 113.135 24.2531V24.2514C113.145 22.5216 111.783 21.4507 110.23 21.6297L110.23 21.6297C109.436 21.7206 108.855 22.0766 108.464 22.5991C108.065 23.1327 107.831 23.8867 107.842 24.8064L67.3837 73.2951ZM69.8405 -18.2434C69.8403 -18.2434 69.8402 -18.2434 69.8401 -18.2434L69.835 -18.9422L69.8408 -18.2434C69.8407 -18.2434 69.8406 -18.2434 69.8405 -18.2434ZM107.56 33.1795L107.56 33.1801C104.512 55.131 83.5044 70.7005 61.5257 67.4106C42.9024 64.629 28.8365 50.1946 26.7582 31.6952L107.56 33.1795ZM107.56 33.1795C107.924 30.5456 107.886 27.8499 107.849 25.2549M107.56 33.1795L107.849 25.2549M107.849 25.2549C107.847 25.1051 107.844 24.9556 107.842 24.8065L107.849 25.2549Z" fill="#CA943A" stroke="#F4DCC3" stroke-width="1.39776"/>
<path d="M96.6158 6.75835L96.5896 6.73244H98.2861C98.8589 6.73244 99.4366 6.72971 100.017 6.72696C101.186 6.72142 102.364 6.71584 103.532 6.7325C104.581 6.7426 105.428 6.39542 106.187 5.64258L96.6158 6.75835ZM96.6158 6.75835C95.5647 6.76999 94.5362 6.77718 93.5022 6.72112C92.8703 6.68441 92.3152 6.78037 91.8011 7.01154C91.2955 7.23896 90.867 7.58063 90.4648 7.97979L90.463 7.98159C83.6116 14.8316 76.7223 21.6571 69.832 28.471L69.8311 28.4719C69.402 28.8979 68.9983 29.2834 68.5665 29.562C67.5404 30.2209 66.2241 30.0546 65.3564 29.1835L65.3563 29.1834C64.4605 28.2844 64.3315 26.9326 65.0443 25.9136C65.2878 25.57 65.587 25.275 65.9384 24.9286C65.9928 24.875 66.0484 24.8202 66.1052 24.7637L66.1057 24.7633C73.0088 17.8992 79.9107 11.0365 86.8499 4.19877L86.8517 4.19699C87.2385 3.8131 87.5376 3.40554 87.7333 2.93317C87.9292 2.46009 88.005 1.9611 87.9978 1.41617L87.9978 1.41464C87.9708 -0.330925 87.9727 -2.03797 87.9747 -3.7534C87.9764 -5.26224 87.9781 -6.77757 87.9602 -8.33132L87.9602 -8.33509C87.9384 -9.62209 88.3382 -10.6078 89.2685 -11.5316C95.6464 -17.8122 101.999 -24.1297 108.338 -30.4591C108.889 -31.0052 109.419 -31.3654 109.95 -31.5325C110.462 -31.6939 111.026 -31.6916 111.693 -31.4251C112.34 -31.1617 112.721 -30.7804 112.954 -30.3241C113.197 -29.8481 113.303 -29.2395 113.297 -28.4977L96.6158 6.75835ZM123.486 -18.3927C123.486 -18.3927 123.486 -18.3927 123.485 -18.3927L123.48 -19.0916L123.486 -18.3927ZM123.486 -18.3927C124.24 -18.3984 124.854 -18.2899 125.331 -18.0463M123.486 -18.3927L125.331 -18.0463M125.331 -18.0463C125.789 -17.8126 126.168 -17.432 126.427 -16.7911L125.331 -18.0463ZM106.192 5.63728L106.188 5.6421L126.428 -16.7902C126.686 -16.1493 126.695 -15.6036 126.547 -15.1078C126.394 -14.5968 126.056 -14.0844 125.53 -13.5562C119.067 -7.16628 112.629 -0.764084 106.192 5.63728ZM93.5092 1.28734L93.7135 1.49015H94.0015C94.6946 1.49015 95.3819 1.49373 96.0649 1.49729C97.9314 1.50701 99.765 1.51656 101.593 1.45243L101.597 1.45228C102.357 1.42149 103.279 1.08125 103.858 0.523445L103.86 0.52113C107.327 -2.85388 110.755 -6.26818 114.175 -9.67477C114.601 -10.0995 115.027 -10.524 115.453 -10.9484C115.672 -11.1657 115.874 -11.4057 116.127 -11.7067C116.21 -11.8052 116.299 -11.9101 116.395 -12.023L117.377 -13.1753H115.863C115.233 -13.1753 114.638 -13.1723 114.065 -13.1694C112.981 -13.164 111.975 -13.159 110.964 -13.1752C109.975 -13.1916 109.28 -13.4838 108.828 -13.9358C108.376 -14.3878 108.084 -15.083 108.068 -16.0693C108.051 -17.0815 108.057 -18.0822 108.062 -19.1252C108.065 -19.6639 108.068 -20.214 108.068 -20.7827V-21.9097L107.058 -21.4087C106.961 -21.3607 106.891 -21.3311 106.821 -21.3014C106.807 -21.2957 106.794 -21.2901 106.781 -21.2844L106.773 -21.2811C106.701 -21.2505 106.558 -21.1901 106.427 -21.0787L106.407 -21.0614L106.388 -21.0425C105.011 -19.6759 103.632 -18.3101 102.253 -16.944C99.4935 -14.2105 96.7326 -11.4757 93.9837 -8.73075L93.9836 -8.73085L93.9738 -8.72066C93.5818 -8.31309 93.3332 -7.67194 93.3155 -7.12737L93.3154 -7.12738L93.3152 -7.11497C93.2851 -5.07603 93.287 -3.02823 93.289 -0.877914C93.2895 -0.332764 93.2901 0.218979 93.2901 0.778835V1.06989L93.4966 1.2749L93.5092 1.28734Z" fill="#CA943A" stroke="#F4DCC3" stroke-width="1.39776"/>
<path d="M62.6755 1.92591L62.675 1.92599C49.3454 4.31275 40.1051 16.3509 41.3362 29.6359C42.5586 42.6952 53.3899 52.7332 66.5134 53.102V53.0988L67.2135 53.1C81.1647 53.1243 92.64 42.2711 93.2741 28.4749C93.3325 27.1926 93.0867 26.2677 92.6662 25.67C92.2634 25.0975 91.6484 24.7497 90.7661 24.7036L90.7659 24.7036C89.8923 24.6577 89.2584 24.9388 88.8114 25.4663C88.3426 26.0196 88.014 26.9235 87.9553 28.2276C87.4361 39.9961 77.1111 48.9121 65.3289 47.7799C55.8229 46.8673 48.1543 39.7176 46.752 30.427C45.3382 21.1057 50.387 12.122 59.1066 8.37984C61.7267 7.2543 64.4602 6.80909 67.2455 6.69489L62.6755 1.92591ZM62.6755 1.92591C64.0892 1.67189 65.5442 1.53803 66.9919 1.5015L66.9954 1.5014M62.6755 1.92591L66.9954 1.5014M66.9954 1.5014C68.6954 1.44996 69.8186 2.53695 69.897 3.98653L69.897 3.98679M66.9954 1.5014L69.897 3.98679M69.897 3.98679C69.9748 5.41426 68.9482 6.62314 67.2457 6.69489L69.897 3.98679Z" fill="#CA943A" stroke="#F4DCC3" stroke-width="1.39776"/>
</svg>
