<svg width="37" height="38" viewBox="0 0 37 38" fill="none" xmlns="http://www.w3.org/2000/svg">
<circle cx="18.4817" cy="19.016" r="18.3246" fill="#CA943A" fill-opacity="0.1"/>
<path fill-rule="evenodd" clip-rule="evenodd" d="M25.3534 19.0162C25.3529 16.8282 24.3097 14.7715 22.5446 13.4785L22.0086 10.5254C21.8903 9.87153 21.3211 9.396 20.6566 9.39583H16.3068C15.6423 9.396 15.0731 9.87153 14.9548 10.5254L14.4188 13.4785C12.6532 14.7711 11.6098 16.8281 11.6098 19.0162C11.6098 21.2044 12.6532 23.2614 14.4188 24.554L14.9548 27.5071C15.0731 28.161 15.6423 28.6365 16.3068 28.6367H20.6566C21.3211 28.6365 21.8903 28.161 22.0086 27.5071L22.5446 24.554C24.3097 23.261 25.3529 21.2042 25.3534 19.0162ZM16.3068 10.7702H20.6566L20.9925 12.6212C19.379 11.9856 17.5844 11.9856 15.9709 12.6212L16.3068 10.7702ZM12.9843 19.0162C12.9843 15.9801 15.4456 13.5189 18.4817 13.5189C21.5178 13.5189 23.9791 15.9801 23.9791 19.0162C23.9791 22.0524 21.5178 24.5136 18.4817 24.5136C15.447 24.5103 12.9876 22.051 12.9843 19.0162ZM20.6566 27.2623H16.3068L15.9709 25.4112C17.5844 26.0469 19.379 26.0469 20.9925 25.4112L20.6566 27.2623ZM17.7945 19.0162V15.5804C17.7945 15.2009 18.1022 14.8932 18.4817 14.8932C18.8612 14.8932 19.1689 15.2009 19.1689 15.5804V18.3291H21.9176C22.2971 18.3291 22.6047 18.6367 22.6047 19.0162C22.6047 19.3958 22.2971 19.7034 21.9176 19.7034H18.4817C18.1022 19.7034 17.7945 19.3958 17.7945 19.0162Z" fill="#CA943A"/>
</svg>
