<svg width="37" height="37" viewBox="0 0 37 37" fill="none" xmlns="http://www.w3.org/2000/svg">
<circle cx="18.4817" cy="18.6493" r="18.3246" fill="#CA943A" fill-opacity="0.1"/>
<path d="M18.879 8.94469C17.7066 8.65158 16.6181 9.53852 16.5389 10.6865C16.4498 11.9766 16.2574 13.1595 16.0129 13.8651C15.8602 14.3057 15.4257 15.1066 14.7385 15.8745C14.0541 16.6394 13.1645 17.3206 12.1231 17.6047C11.2993 17.8294 10.4584 18.5431 10.4584 19.5862V24.4947C10.4584 25.5307 11.2955 26.2906 12.2347 26.3902C13.5468 26.5293 14.1533 26.8996 14.7718 27.2771L14.8302 27.3128C15.1648 27.5167 15.5396 27.7412 16.0212 27.9071C16.5077 28.0746 17.0775 28.1744 17.8193 28.1744H22.1131C23.2627 28.1744 24.0748 27.5881 24.4859 26.8685C24.6872 26.5163 24.7968 26.1248 24.7968 25.7495C24.7968 25.5626 24.7689 25.3666 24.7025 25.1796C24.9497 24.8579 25.1698 24.4713 25.3021 24.0745C25.4367 23.6706 25.5125 23.1403 25.3061 22.6658C25.3909 22.5055 25.4544 22.3358 25.5016 22.1704C25.5963 21.839 25.6402 21.4746 25.6402 21.1202C25.6402 20.7657 25.5963 20.4013 25.5016 20.0699C25.4593 19.9217 25.404 19.7702 25.3319 19.625C25.816 18.924 25.8452 18.1517 25.6189 17.4986C25.3671 16.7722 24.7831 16.1496 24.1473 15.9377C23.1081 15.5912 21.9349 15.5992 21.0608 15.6787C20.8667 15.6963 20.6843 15.7178 20.5176 15.7406C21.0947 13.2897 20.7109 11.2093 20.4405 10.2083C20.272 9.58442 19.767 9.1667 19.1997 9.02487L18.879 8.94469ZM22.1131 26.9475H17.8193C17.1927 26.9475 16.7605 26.8641 16.4206 26.7471C16.0758 26.6284 15.7997 26.4669 15.4686 26.2651L15.4196 26.2353C14.7389 25.82 13.9494 25.3383 12.3641 25.1702C11.9558 25.1269 11.6852 24.8138 11.6852 24.4947V19.5862C11.6852 19.2742 11.9623 18.9201 12.4459 18.7882C13.7898 18.4217 14.871 17.5661 15.6527 16.6926C16.4316 15.8222 16.9584 14.8832 17.172 14.2668C17.4697 13.408 17.6712 12.0979 17.7628 10.7709C17.7934 10.3265 18.2053 10.0408 18.5815 10.1349L18.9022 10.215C19.0992 10.2643 19.2192 10.3914 19.2561 10.5282C19.5265 11.529 19.9285 13.7728 19.0776 16.3256C19.0068 16.538 19.0573 16.7721 19.2094 16.9364C19.3615 17.1006 19.5911 17.1689 19.8083 17.1147L19.8115 17.1139L19.8283 17.1099C19.8439 17.1062 19.8682 17.1006 19.9005 17.0935C19.9651 17.0792 20.0614 17.0591 20.1833 17.0365C20.4278 16.9912 20.7729 16.9367 21.1719 16.9004C21.9847 16.8265 22.9584 16.8345 23.7594 17.1015C23.9747 17.1733 24.3108 17.4708 24.4597 17.9003C24.5904 18.2774 24.565 18.7209 24.133 19.1529L23.6993 19.5866L24.133 20.0204C24.1852 20.0726 24.261 20.1933 24.322 20.4069C24.3807 20.6122 24.4134 20.8611 24.4134 21.1201C24.4134 21.3791 24.3807 21.6281 24.322 21.8334C24.261 22.047 24.1852 22.1677 24.133 22.2199L23.6993 22.6537L24.133 23.0874C24.1907 23.1451 24.2657 23.3038 24.1382 23.6865C24.0184 24.046 23.767 24.4261 23.5196 24.6735L23.0859 25.1073L23.5196 25.541C23.526 25.5475 23.57 25.6019 23.57 25.7495C23.57 25.8917 23.5262 26.0752 23.4208 26.2598C23.2186 26.6137 22.8038 26.9475 22.1131 26.9475Z" fill="#CA943A" stroke="#CA943A" stroke-width="0.490727"/>
</svg>
